<?xml version="1.0" encoding="UTF-8" standalone="no"?>
<!DOCTYPE svg PUBLIC "-//W3C//DTD SVG 1.1//EN" "http://www.w3.org/Graphics/SVG/1.1/DTD/svg11.dtd">
<svg width="100%" height="100%" viewBox="0 0 636 613" version="1.1" xmlns="http://www.w3.org/2000/svg" xmlns:xlink="http://www.w3.org/1999/xlink" xml:space="preserve" xmlns:serif="http://www.serif.com/" style="fill-rule:evenodd;clip-rule:evenodd;stroke-linejoin:round;stroke-miterlimit:2;">
    <g>
        <path d="M344.61,3.13C346.21,4.177 347.01,5.65 347.01,7.55C347.01,17.85 346.83,28.583 346.47,39.75C346.27,45.69 337.41,49.59 333.61,44.03C332.717,42.723 332.25,40.763 332.21,38.15C332.07,28.2 331.51,18.13 332.14,8.17C332.57,1.58 339.74,-0.05 344.61,3.13Z" style="fill:white;fill-rule:nonzero;"/>
        <path d="M294.79,45.74C290.47,49.09 285.01,44.68 284.24,40.29C282.75,31.78 283.25,22.89 283.04,14.27C282.953,10.757 283.187,8.293 283.74,6.88C286.47,0 297.98,0.14 297.77,8.95C297.517,19.397 297.41,29.85 297.45,40.31C297.457,42.543 296.57,44.353 294.79,45.74Z" style="fill:white;fill-rule:nonzero;"/>
        <path d="M396.04,23.65C397.53,18.08 398.84,9 405.73,8.05C410.15,7.44 413.83,10.13 413.75,14.8C413.6,22.65 410.48,30.82 408.13,38.27C407.003,41.85 405.843,46.1 404.65,51.02C402.73,58.99 400.04,65.66 398.12,72.86C395.36,83.23 391.71,93.16 388.88,103.5C387.067,110.147 385.127,116.76 383.06,123.34C382.777,124.254 381.952,124.904 380.99,124.97C375.07,125.36 372.76,115.59 373.26,111.16C374.04,104.31 375.99,97.7 377.59,91.02C378.757,86.147 380.01,81.37 381.35,76.69C386.403,59.05 391.3,41.37 396.04,23.65Z" style="fill:white;fill-rule:nonzero;"/>
        <path d="M249.15,124.35C248.043,123.717 247.27,122.683 246.83,121.25C236.66,87.71 225.59,54.19 216.8,20.14C216.033,17.187 215.763,15.077 215.99,13.81C217.12,7.48 224.92,6.59 228.75,10.78C229.677,11.793 230.537,13.613 231.33,16.24C240.72,47.51 250.28,78.56 257.65,110.51C257.957,111.823 257.883,113.213 257.43,114.68L255.5,121C255.087,122.36 254.39,123.417 253.41,124.17C252.103,125.17 250.683,125.23 249.15,124.35Z" style="fill:white;fill-rule:nonzero;"/>
        <path d="M408.22,159.78C403.59,166.21 399.3,172.89 395.08,179.59C394.293,180.837 393.32,181.91 392.16,182.81C384.09,189.09 378.42,179.97 382.47,172.96C390.603,158.88 395.973,150.003 398.58,146.33C402.15,141.3 404.32,137.18 407.14,132.56C419.673,111.973 432.11,91.33 444.45,70.63C444.49,70.563 446.327,67.75 449.96,62.19C452.42,58.44 454.42,53.91 456.56,50.44C460.47,44.05 465.81,30.11 474.85,31.94C479.03,32.78 482.28,36.52 480.23,40.85C475.38,51.06 468.72,60.62 462.74,71.13C460.16,75.663 457.75,79.713 455.51,83.28C442.35,104.16 430.58,124.68 416.61,146.29C414.83,149.05 411.29,155.54 408.22,159.78Z" style="fill:white;fill-rule:nonzero;"/>
        <path d="M223.25,128.1C225.98,132.79 229.57,137.42 232.29,141.95C237.597,150.777 243.483,161.07 249.95,172.83C251.99,176.55 252.62,179.42 249.47,182.48C242.21,189.52 236.29,175.82 233.36,171.42C220.033,151.44 208.647,133.567 199.2,117.8C194.82,110.47 189.45,102.25 186.55,97.51C175.25,79.083 168.277,67.88 165.63,63.9C161.023,56.973 157.34,50.513 154.58,44.52C149.41,33.29 162.13,27.18 167.77,36.9C179.73,57.51 193.43,81.07 206.72,100.77C207.51,101.94 208.07,103.91 208.98,105.26C213.987,112.72 218.743,120.333 223.25,128.1Z" style="fill:white;fill-rule:nonzero;"/>
        <path d="M395.92,539.04L528.25,538.96C536.03,539.25 542.8,540.5 544.31,548.21C545.39,553.68 541.51,558.04 536.09,558C497.563,557.767 459.033,557.78 420.5,558.04L404,558.21C372.44,557.33 341,557.7 309.44,557.72C232.293,557.767 155.13,557.757 77.95,557.69C70.41,557.69 68.2,550.3 70.75,544.04C72.763,541.02 75.49,539.467 78.93,539.38C104.17,538.75 132.11,539.21 159.81,539.2C185.197,539.187 210.587,539.113 235.98,538.98L236.79,529.75C237.25,529.257 237.43,528.65 237.33,527.93C237.318,527.86 237.52,527.587 237.81,527.28C238.317,526.733 238.45,526.053 238.21,525.24C238.146,525.031 238.15,524.835 238.22,524.7C238.613,523.96 238.81,524.147 238.81,525.26C238.809,525.732 239.318,526.427 240.13,527.06C241.157,527.86 241.517,527.583 241.21,526.23C241.124,525.847 241.145,525.517 241.26,525.47C242.247,525.01 242.943,525.33 243.35,526.43C243.518,526.896 243.686,527.263 243.73,527.26L244.75,527.24C244.812,527.251 245.019,526.989 245.23,526.63C246.09,525.21 246.447,523.697 246.3,522.09C246.298,522.074 246.298,522.057 246.297,522.04C246.29,521.711 246.509,521.435 246.783,521.429C246.796,521.429 246.808,521.429 246.82,521.43C247.187,521.45 247.52,521.327 247.82,521.06C247.98,520.92 247.953,520.823 247.74,520.77C247.06,520.603 247.147,520.51 248,520.49C248.199,520.484 248.364,520.433 248.46,520.35C248.667,520.163 248.717,519.98 248.61,519.8C248.598,519.782 248.589,519.763 248.581,519.743C248.519,519.591 248.582,519.42 248.719,519.364C248.736,519.358 248.753,519.353 248.77,519.35C250.117,519.157 250.107,518.953 248.74,518.74C248.36,518.68 248.33,518.573 248.65,518.42C248.977,518.267 249.33,518.233 249.71,518.32C250.003,518.389 250.279,518.298 250.35,518.11C250.55,517.62 249.08,518.01 248.56,517.66C248.193,517.413 248.25,517.317 248.73,517.37C249.33,517.437 249.51,517.313 249.27,517C249.16,516.858 248.939,516.785 248.69,516.81C247.87,516.89 248.123,516.453 249.45,515.5C249.464,515.489 249.477,515.477 249.49,515.463C249.578,515.366 249.591,515.231 249.519,515.165C249.507,515.155 249.494,515.146 249.48,515.14L248.75,514.77C248.496,514.644 248.343,514.423 248.39,514.25C248.863,512.463 248.247,511.617 246.54,511.71C246.212,511.729 245.944,511.883 245.86,512.1C245.347,513.427 245.15,513.213 245.27,511.46C245.282,511.245 245.167,511.008 244.96,510.82C243.84,509.833 244.017,509.297 245.49,509.21C245.52,509.217 245.644,509.513 245.77,509.88C245.97,510.467 246.463,510.57 247.25,510.19C247.478,510.084 247.598,509.774 247.54,509.44C247.333,508.307 247.473,507.297 247.96,506.41C248.193,505.978 248.359,505.617 248.36,505.54C248.24,504.54 248.65,503.817 249.59,503.37C249.733,503.3 249.802,503.139 249.75,503L249.68,502.82C249.678,502.816 249.677,502.811 249.675,502.807C249.634,502.682 249.665,502.558 249.743,502.532C249.745,502.531 249.748,502.531 249.75,502.53C250.603,502.303 250.69,502.12 250.01,501.98C249.97,501.972 249.929,501.961 249.89,501.946C249.613,501.841 249.448,501.589 249.524,501.389C249.535,501.361 249.55,501.334 249.57,501.31C249.77,501.057 249.77,500.81 249.57,500.57C249.463,500.435 249.397,500.164 249.39,499.83L249.37,496.68C249.369,496.652 249.371,496.624 249.374,496.596C249.401,496.378 249.549,496.214 249.701,496.233C249.722,496.236 249.741,496.241 249.76,496.25L249.93,496.33C249.958,496.342 249.988,496.351 250.018,496.358C250.239,496.402 250.453,496.276 250.494,496.077C250.5,496.048 250.502,496.019 250.5,495.99L250.34,492.93C250.322,492.535 250.438,492.206 250.63,492.11C251.51,491.677 251.65,491.227 251.05,490.76C251.037,490.75 251.025,490.74 251.013,490.729C250.806,490.549 250.718,490.306 250.819,490.19C250.825,490.183 250.832,490.176 250.84,490.17C251.487,489.617 251.567,489.187 251.08,488.88C251.066,488.871 251.053,488.863 251.04,488.853C250.731,488.644 250.558,488.352 250.657,488.207C250.661,488.201 250.665,488.195 250.67,488.19L251.05,487.81C251.303,487.551 251.446,487.258 251.44,487.01L251.4,482.43C251.402,482.293 251.241,482.128 251,482.02C249.76,481.48 249.83,481.283 251.21,481.43C251.286,481.435 251.382,481.331 251.44,481.18L251.51,481C251.577,480.813 251.387,480.793 250.94,480.94C250.387,481.12 250.18,480.997 250.32,480.57C250.328,480.545 250.334,480.52 250.338,480.494C250.377,480.256 250.253,480.034 250.064,480.003C250.043,480 250.021,479.999 250,480C249.613,480.033 249.387,479.89 249.32,479.57C249.253,479.243 249.109,478.994 248.99,479C248.163,479.06 248.043,478.727 248.63,478C248.923,477.64 248.807,477.487 248.28,477.54C247.74,477.593 247.47,477.437 247.47,477.07C247.466,476.867 247.729,476.678 248.07,476.64C248.57,476.58 248.41,474.2 248.33,473.62C248.297,473.407 248.237,473.4 248.15,473.6C248.077,473.767 247.987,473.87 247.88,473.91C247.765,473.957 247.527,473.675 247.35,473.28C247.223,473 246.937,472.833 246.49,472.78C246.217,472.747 246.197,472.67 246.43,472.55L247.64,471.94C247.656,471.932 247.672,471.925 247.688,471.919C247.822,471.869 247.956,471.891 247.984,471.969C247.988,471.978 247.99,471.989 247.99,472C248.05,472.94 248.233,472.94 248.54,472C248.615,471.775 248.718,471.61 248.81,471.57C249.497,471.283 249.647,470.747 249.26,469.96C249.209,469.859 249.195,469.759 249.22,469.69C249.467,468.91 249.48,468.117 249.26,467.31C249.228,467.183 249.132,467.073 249,467.01C248.4,466.73 248.397,466.557 248.99,466.49C248.99,466.49 248.991,466.49 248.991,466.49C249.204,466.467 249.357,466.238 249.33,465.982C249.33,465.981 249.33,465.981 249.33,465.98C249.15,464.31 250.66,462.73 250.44,461.77C250.313,461.19 250.41,460.983 250.73,461.15C251.237,461.423 251.72,461.26 252.18,460.66C252.293,460.5 252.423,460.593 252.57,460.94C252.663,461.173 252.803,461.363 252.99,461.51C253.008,461.525 253.027,461.539 253.048,461.549C253.271,461.667 253.6,461.488 253.776,461.154C253.793,461.123 253.807,461.092 253.82,461.06C254.033,460.54 254.427,460.27 255,460.25C255.01,460.25 255.02,460.248 255.029,460.244C255.101,460.217 255.125,460.102 255.083,459.989C255.077,459.972 255.069,459.956 255.06,459.94C254.893,459.62 254.953,459.387 255.24,459.24C255.25,459.235 255.261,459.229 255.271,459.223C255.458,459.109 255.503,458.837 255.371,458.622C255.365,458.611 255.357,458.6 255.35,458.59C255.137,458.29 255.383,458.157 256.09,458.19C256.403,458.21 256.447,458.13 256.22,457.95C256.113,457.857 255.993,457.807 255.86,457.8C255.859,457.8 255.858,457.8 255.857,457.8C255.632,457.786 255.458,457.616 255.47,457.425C255.47,457.423 255.47,457.422 255.47,457.42C255.517,456.813 255.26,456.313 254.7,455.92C254.416,455.723 254.241,455.468 254.24,455.25L254.22,447.8C254.22,447.77 254.218,447.74 254.215,447.71C254.169,447.307 253.845,447.007 253.496,447.046C253.471,447.049 253.445,447.054 253.42,447.06C252.12,447.387 251.3,448.13 250.96,449.29C250.853,449.643 250.713,449.787 250.54,449.72C250.514,449.727 250.469,449.485 250.44,449.18C250.407,448.84 250.123,448.697 249.59,448.75C249.571,448.752 249.552,448.751 249.533,448.746C249.4,448.715 249.328,448.526 249.375,448.329C249.381,448.302 249.39,448.275 249.4,448.25C250.12,446.41 250.46,444.643 250.42,442.95C250.407,442.483 250.523,442.5 250.77,443C251.123,443.693 251.377,443.697 251.53,443.01C251.6,442.667 251.812,442.414 252,442.45C253.013,442.677 253.477,442.35 253.39,441.47C253.363,441.207 253.188,441.006 253,441.02C252.847,441.027 252.7,441 252.56,440.94C252.539,440.93 252.52,440.917 252.505,440.9C252.382,440.768 252.495,440.459 252.757,440.216C252.79,440.186 252.824,440.157 252.86,440.13C253.66,439.537 253.873,438.727 253.5,437.7C253.326,437.225 253.003,436.902 252.77,436.97C251.897,437.223 251.607,437.76 251.9,438.58C252.052,438.994 252.028,439.394 251.84,439.6C251.56,439.92 251.213,440.15 250.8,440.29C250.701,440.321 250.594,440.298 250.52,440.23C250.233,439.97 249.893,439.89 249.5,439.99C249.48,439.995 249.461,440.002 249.443,440.011C249.208,440.117 249.119,440.435 249.246,440.715C249.256,440.737 249.268,440.759 249.28,440.78C250.46,442.753 250.057,444.16 248.07,445C247.955,445.05 247.841,445.274 247.78,445.57L246.67,450.68C246.669,450.685 246.668,450.69 246.666,450.694C246.638,450.747 246.503,450.734 246.366,450.664C246.357,450.66 246.349,450.655 246.34,450.65C246.273,450.61 246.203,450.587 246.13,450.58C245.937,450.57 245.784,450.46 245.78,450.33L245.71,447.25C246.67,434.5 248.74,420.48 249.76,409.14C252.23,381.71 255.38,354.3 257.6,326.85C260.04,296.58 262.25,274.41 262.91,254.28C262.91,254.27 262.91,254.26 262.91,254.249C262.9,254.019 262.703,253.838 262.473,253.847C262.462,253.848 262.451,253.849 262.44,253.85C252.98,254.88 245.52,243.29 246.43,235.04C246.91,230.57 248.93,226.82 253.16,224.96C255.32,224.01 257.96,224.09 260.42,223.78C260.426,223.779 260.432,223.779 260.438,223.778C260.693,223.739 260.871,223.498 260.832,223.243C260.831,223.238 260.831,223.234 260.83,223.23C259.25,214.177 258.11,205.087 257.41,195.96C256.94,189.86 258.7,184.67 265.7,185.17C267.333,185.29 268.16,184.547 268.18,182.94L268.46,152.25C268.46,152.243 268.46,152.236 268.46,152.229C268.45,151.982 268.221,151.788 267.952,151.799C267.945,151.799 267.937,151.799 267.93,151.8C266.07,151.94 251.78,152.97 252.24,150.62C252.293,150.37 252.604,150.16 253.01,150.1L259.93,149.14C260.129,149.109 260.304,148.83 260.35,148.47C263.43,124.58 277.01,106.93 299.31,97.51C300.15,97.15 304.84,96.61 304.93,96.41C305.016,96.228 304.868,95.972 304.6,95.84C295,91.21 292.45,78.74 295.81,69.56C300.4,57.04 317.68,55.41 327.7,60.58C331.72,62.653 334.73,65.75 336.73,69.87C341.08,78.84 337.97,88.32 330.28,94.3C329.873,94.62 329.197,94.847 328.25,94.98C327.926,95.022 327.683,95.247 327.71,95.48C327.75,95.74 331.83,96.78 331.98,96.84C340.013,99.98 347.09,104.417 353.21,110.15C363.75,120.02 370.39,134.89 373.92,148.98C374.047,149.468 374.288,149.828 374.49,149.83L380.07,149.88C380.427,149.886 380.714,150.016 380.76,150.19C381.27,152.13 379.64,153.02 377.88,152.89C373.947,152.603 370,152.633 366.04,152.98C365.755,153.01 365.532,153.259 365.52,153.56C365.147,163.46 365.183,173.353 365.63,183.24C365.643,183.565 365.841,183.847 366.13,183.95C374.66,187.02 375.34,189.82 374.78,198.31C374.213,206.79 373.003,215.173 371.15,223.46C371.149,223.466 371.147,223.472 371.146,223.477C371.097,223.736 371.264,223.989 371.517,224.038C371.521,224.039 371.526,224.039 371.53,224.04C376.94,224.98 381.43,225.37 382.94,231.5C384.63,238.37 383.26,247.49 376.39,250.97C373.497,252.437 370.293,253.643 366.78,254.59C366.367,254.702 366.087,255.088 366.11,255.51C366.94,270.97 369.43,287.49 370.74,301.64C372.66,322.373 374.727,343.093 376.94,363.8C378.9,382.1 380.07,400.46 382.32,418.73C387.3,459.13 391.25,498.79 395.92,539.04ZM298.23,170.61C298.337,165.17 298.28,159.737 298.06,154.31C298.06,154.307 298.06,154.303 298.06,154.3C298.044,154.021 297.801,153.804 297.522,153.819C297.518,153.819 297.514,153.82 297.51,153.82C293.643,154.133 289.803,153.963 285.99,153.31C285.982,153.309 285.974,153.308 285.966,153.308C285.769,153.3 285.595,153.591 285.581,153.953C285.58,153.969 285.58,153.984 285.58,154L285.55,190.18C285.55,192.073 286.283,193.423 287.75,194.23C290.383,195.67 293.137,195.93 296.01,195.01C297.203,194.623 297.85,193.77 297.95,192.45C298.51,185.16 298.1,177.02 298.23,170.61ZM337.96,190.25C337.92,195.82 345.52,196.19 348.66,193.36C348.893,193.153 349.052,192.86 349.11,192.53C349.737,189.337 349.893,185.807 349.58,181.94C348.94,174.09 349.14,163.75 348.7,154.37C348.682,153.976 348.403,153.658 348.06,153.64L338.74,153.32C338.736,153.32 338.733,153.32 338.729,153.32C338.384,153.316 338.095,153.66 338.09,154.082C338.09,154.085 338.09,154.087 338.09,154.09C338.103,166.137 338.06,178.19 337.96,190.25ZM322.23,193.31C323.123,192.33 323.687,191.187 323.92,189.88C324.147,188.573 324.257,187.03 324.25,185.25C324.19,175.083 324.097,164.91 323.97,154.73C323.964,154.253 323.535,153.86 323.01,153.85L310.98,153.66C310.978,153.66 310.976,153.66 310.974,153.66C310.332,153.652 309.798,154.169 309.79,154.806C309.79,154.807 309.79,154.809 309.79,154.81C309.77,166.017 309.693,177.23 309.56,188.45C309.5,193.1 313.45,196.36 317.69,195.97C319.23,195.823 320.743,194.937 322.23,193.31ZM320.56,288.94C316.27,283.88 308.78,287.08 307.08,292.25C305.35,297.47 305.82,308.09 306.34,314.34C306.366,314.673 306.656,314.932 307,314.93L323.5,314.75C323.84,314.745 324.119,314.47 324.13,314.13C324.35,306.29 325.94,295.32 320.56,288.94ZM312.12,383.67C315.933,383.85 319.753,383.81 323.58,383.55C323.863,383.535 324.09,383.303 324.1,383.02C324.44,376.79 325.09,367.7 322.92,361.81C321.07,356.79 315.64,349.7 309.46,354.14C301.78,359.66 303.71,372.9 304.37,382.78C304.388,383.08 304.601,383.334 304.89,383.4C307.36,383.99 310.51,383.6 312.12,383.67ZM300.26,478.58L328.32,478.16C328.791,478.15 329.184,477.809 329.23,477.37C330.11,468.31 330.7,455.97 325.58,447.84C319.86,438.76 307.25,439.32 302,448.09C297.98,454.79 299,470.22 299.46,477.81C299.487,478.244 299.841,478.585 300.26,478.58Z" style="fill:white;fill-rule:nonzero;"/>
        <path d="M524.22,64.53C533.13,67.9 531.09,74.44 526.41,80.14C508.52,101.96 500.02,113.15 482.45,134.2C463.22,157.24 444.37,180.68 423.97,202.71C420.93,206 418.01,207.14 414.17,204.57C412.51,203.457 411.913,201.93 412.38,199.99C413.44,195.63 415.53,192.38 418.66,188.54C435.15,168.29 450.77,147.33 467.92,127.64C477.39,116.78 485.25,106.32 494.03,95.74C500.237,88.26 506.297,80.667 512.21,72.96C514.65,69.78 518.58,65.25 522.46,64.4C523.047,64.27 523.659,64.315 524.22,64.53Z" style="fill:white;fill-rule:nonzero;"/>
        <path d="M206.72,179.27C209.45,182.42 220.28,194.32 220.15,199.83C220.05,203.87 217.577,205.96 212.73,206.1C212.406,206.107 212.086,206.005 211.82,205.81C210.107,204.537 208.573,203.113 207.22,201.54C196.85,189.45 186.37,177.65 176.98,164.76C176.03,163.44 174.5,162.35 173.48,160.96C166.47,151.33 157.64,142.52 150.91,133.77C145.16,126.3 139.69,118.95 133.5,111.57C125.373,101.883 117.457,92.027 109.75,82C107.16,78.63 101.65,70.88 107.14,66.99C111.48,63.923 115.777,64.593 120.03,69C121.463,70.487 124.62,74.613 129.5,81.38C132.66,85.76 135.807,89.89 138.94,93.77C149.767,107.19 160.39,120.777 170.81,134.53C173.7,138.36 177.72,142.76 180.06,145.94C188.513,157.393 197.4,168.503 206.72,179.27Z" style="fill:white;fill-rule:nonzero;"/>
        <path d="M135.56,224.69C135.847,224.823 136.31,224.843 136.95,224.75C137.29,224.703 137.313,224.593 137.02,224.42C121.68,215.24 110.71,207.02 99.39,198.28C97.21,196.6 94.44,195.41 92.41,193.98C74.13,181.03 55.63,168.36 37.28,155.49C33.56,152.89 33.69,147.1 35.6,143.86C38.4,139.11 44.61,141.76 48.72,144.59C68.093,157.917 82.093,167.477 90.72,173.27C102.72,181.32 114.53,189.7 125.05,196.8C137.55,205.227 149.943,213.803 162.23,222.53C167.44,226.22 169.19,231.09 164.34,236.19C164.334,236.196 164.328,236.203 164.322,236.21C164.158,236.395 164.176,236.681 164.362,236.845C164.368,236.85 164.374,236.855 164.38,236.86C167.04,238.987 169.92,240.78 173.02,242.24C178.733,244.927 184.323,247.857 189.79,251.03C198.11,255.85 208.09,260.67 216.74,266.5C224.44,271.7 219.22,282.95 210.94,279.06C196.27,272.16 186.87,267.07 175.35,261.57C157.31,252.96 139.44,244.13 121.23,235.88C116.85,233.9 110.423,230.873 101.95,226.8C98.74,225.26 96.04,222.83 96.34,219C96.67,214.77 100,212.84 104.08,213.8C114.947,216.36 125.44,219.99 135.56,224.69Z" style="fill:white;fill-rule:nonzero;"/>
        <path d="M493.55,224.82C496.197,224.133 498.28,223.457 499.8,222.79C508.333,219.003 516.937,215.387 525.61,211.94C537.5,207.2 540.69,222.82 529.43,226.95C523.937,228.957 519.557,230.757 516.29,232.35C503.33,238.68 489.7,244.72 477.23,250.89C457.83,260.49 438.227,270.013 418.42,279.46C417.16,280.06 416.023,280.073 415.01,279.5C411.437,277.487 409.853,274.417 410.26,270.29C410.299,269.902 410.412,269.58 410.58,269.38C414.38,264.69 419.15,263.82 423.45,261.45C437.897,253.497 452.377,245.46 466.89,237.34C467.153,237.188 467.258,236.856 467.13,236.58C464.477,231.053 465.197,226.46 469.29,222.8C474.4,218.22 483.1,212.86 490.54,207.34C504.21,197.2 516.87,189.46 530.09,181.02C535.73,177.42 541.65,172.66 546.46,169.45C558.993,161.083 571.503,152.687 583.99,144.26C586.063,142.86 588.263,141.857 590.59,141.25C591.763,140.943 592.89,141.067 593.97,141.62C601.48,145.43 599.91,151.6 594.51,156.12C591.563,158.587 588.47,160.87 585.23,162.97C568.52,173.78 552.2,185.14 535.53,195.99C531.29,198.75 527.107,201.593 522.98,204.52C517.76,208.21 511.91,211.85 506.5,215.73C505.5,216.45 493.19,224 493.09,224.44C493.086,224.463 493.084,224.486 493.086,224.509C493.094,224.696 493.268,224.841 493.471,224.832C493.498,224.83 493.524,224.826 493.55,224.82Z" style="fill:white;fill-rule:nonzero;"/>
        <path d="M567.05,267.96C571.06,272.76 568.74,279.11 563.7,281.65C562.04,282.483 559.013,283.22 554.62,283.86C550.7,284.433 547.637,284.94 545.43,285.38C536.117,287.26 519.803,290.36 496.49,294.68C465.703,300.387 443.72,304.303 430.54,306.43C425,307.32 423.05,302.83 424.71,298C425.477,296 426.76,294.763 428.56,294.29C438.71,291.61 452.95,288.39 465.55,285.91C505.57,278.03 534.47,272.06 552.25,268C558.03,266.68 562.963,266.667 567.05,267.96ZM540.79,279.5C541.223,280.573 542.047,281.16 543.26,281.26C543.725,281.297 544.088,281.41 544.19,281.55L544.74,282.27C544.782,282.339 545.211,282.344 545.74,282.28C547.173,282.107 548.6,282.183 550.02,282.51C551.153,282.77 552.317,282.6 553.51,282L559.82,278.82C560.032,278.714 560.14,278.433 560.08,278.14C559.887,277.213 560,276.77 560.42,276.81C561.116,276.876 561.787,276.521 562.12,275.91C563.267,273.803 562.997,272.89 561.31,273.17C561.3,273.172 561.29,273.172 561.28,273.172C561.148,273.166 561.047,272.995 561.055,272.792C561.056,272.775 561.058,272.757 561.06,272.74C561.153,272.087 561.543,271.843 562.23,272.01C562.272,272.021 562.316,272.026 562.359,272.027C562.699,272.033 562.984,271.735 562.991,271.368C562.992,271.322 562.988,271.275 562.98,271.23C562.573,269.01 561.34,268.543 559.28,269.83C559.087,269.952 558.805,269.998 558.49,269.96C556.78,269.75 555.16,270.73 553.97,270.94C551.58,271.36 547,272.93 544.81,272.41C544.553,272.349 544.247,272.496 544.04,272.78C543.533,273.493 542.857,273.913 542.01,274.04C541.698,274.091 541.431,274.263 541.28,274.51C540.653,275.577 539.86,275.793 538.9,275.16C538.561,274.939 538.226,274.85 538.03,274.93C535.64,275.93 533.52,276.96 534.04,279.59C534.093,279.87 534.08,280.17 534,280.49L533.48,282.45C533.362,282.894 533.392,283.297 533.56,283.52C534.587,284.893 535.693,284.827 536.88,283.32C537.514,282.518 537.855,281.74 537.78,281.27C537.513,279.503 538.247,278.743 539.98,278.99C540.373,279.046 540.685,279.242 540.79,279.5Z" style="fill:white;fill-rule:nonzero;"/>
        <path d="M204,294.29C208.64,297.14 210.12,303.52 204.48,306.37C203.733,306.743 202.84,306.83 201.8,306.63C193.92,305.1 185.55,304.04 178.09,302.58C158.84,298.79 139.4,296.08 120.19,292.33C104.823,289.337 94.51,287.477 89.25,286.75C81.59,285.69 74.943,283.68 69.31,280.72C68.457,277.733 68.447,274.97 69.28,272.43C69.887,270.577 71.143,269.43 73.05,268.99C77.07,268.07 80.87,269.38 85.5,270.27C117.59,276.45 151.76,282.4 184.63,289.78C189.34,290.84 197.64,292.1 204,294.29Z" style="fill:white;fill-rule:nonzero;"/>
        <path d="M511,325.71L528.25,326.6C537.61,326.87 547.88,327.86 556.26,328.22C565.527,328.613 571.547,328.937 574.32,329.19C582.99,330 592.83,330.08 600.3,330.59C609.787,331.243 619.27,331.893 628.75,332.54L632.99,334.89C634.617,337.363 634.88,339.897 633.78,342.49C632.027,345.663 629.707,347.443 626.82,347.83C621.63,348.52 612.17,347.08 607.65,346.76C566.65,343.9 525.653,341.063 484.66,338.25C466.62,337.02 450.27,335.22 432.25,332.78C430.097,332.487 428.36,331.643 427.04,330.25C426.22,327.337 426.693,324.703 428.46,322.35C428.639,322.108 428.942,321.975 429.26,322C449.36,323.6 469.5,322.99 489.74,324.3C496.827,324.76 503.913,325.23 511,325.71Z" style="fill:white;fill-rule:nonzero;"/>
        <path d="M204.54,325.75C205.23,329.97 203.17,332.54 198.88,332.88C188.29,333.72 176.46,335.69 167.36,336.56C129.89,340.16 95.22,341.43 54.75,344.75C45.81,345.48 33.5,345.53 22.35,346.71C16.79,347.303 12.527,347.463 9.56,347.19C6.3,346.897 3.923,345.007 2.43,341.52C1.823,334.78 4.93,331.427 11.75,331.46C45.797,329.933 72.297,328.613 91.25,327.5C104.69,326.713 115.857,326.143 124.75,325.79C126.337,325.523 129.253,325.333 133.5,325.22C139.21,325.07 147.48,324.11 154.6,324.01C170.18,323.78 185.86,322.52 201.43,323.16C203.22,323.23 204.14,324.11 204.54,325.75ZM193.48,324.66C189.407,325.96 185.253,326.857 181.02,327.35C180.817,327.373 180.639,327.567 180.58,327.83C180.2,329.457 180.917,329.663 182.73,328.45C183.263,328.09 183.537,328.21 183.55,328.81C183.583,330.343 182.73,330.783 180.99,330.13C180.934,330.115 180.736,330.159 180.5,330.24C180.253,330.327 180.167,330.5 180.24,330.76C180.306,330.99 180.643,331.113 181.01,331.04C182.317,330.787 183.5,330.997 184.56,331.67C184.742,331.784 185.086,331.825 185.5,331.78C189.993,331.287 194.493,331.213 199,331.56C200.547,331.68 201.573,331.093 202.08,329.8L203.15,327.07C203.637,325.83 203.167,325.06 201.74,324.76C199.047,324.193 196.32,324.05 193.56,324.33C193.5,324.337 193.5,324.373 193.56,324.44L193.69,324.56C193.691,324.561 193.692,324.562 193.692,324.563C193.697,324.578 193.606,324.621 193.491,324.657C193.487,324.658 193.484,324.659 193.48,324.66Z" style="fill:white;fill-rule:nonzero;"/>
        <path d="M552.95,416.39C568.17,424.63 583.497,432.68 598.93,440.54C605.58,443.93 609.16,449.73 601.75,455.61C601.49,455.818 601.175,455.937 600.85,455.95C597.397,456.13 593.843,455.337 590.19,453.57C562.24,440.06 536.96,425.37 511.85,411.92C507.63,409.66 502.7,406.56 497.68,403.82C496.45,403.15 495.25,403.05 494.24,402.52C477.373,393.553 460.523,384.563 443.69,375.55C436.57,371.74 429.33,368.34 422.13,364.63C418.9,362.96 417.7,360.99 417.54,357.5C418.77,349.08 424.87,350.6 430.6,353.41C449.927,362.87 477.46,376.913 513.2,395.54C534.88,406.84 548.13,413.79 552.95,416.39Z" style="fill:white;fill-rule:nonzero;"/>
        <path d="M213,352.04C219.32,358.02 213.19,363.85 207.95,366.72C180.63,381.69 152.88,395.79 125.46,410.58C116.26,415.55 105.98,420.52 97.59,424.97C82.037,433.21 66.413,441.313 50.72,449.28C46.26,451.54 32.59,458.85 28.36,454.64C25.847,452.133 25.06,449.017 26,445.29C28.81,440.15 36.81,438.65 41.88,436.18C53.353,430.593 64.713,424.79 75.96,418.77C93.36,409.45 110.92,400.71 128.39,391.6L131.5,389.96C149.7,380.55 167.94,371.15 186.45,362.35C193.24,359.13 198.63,355.69 206.47,352.24C208.777,351.22 210.953,351.153 213,352.04Z" style="fill:white;fill-rule:nonzero;"/>
        <path d="M181.02,454.43C185.347,460.437 184.58,465.54 178.72,469.74C178.459,469.923 178.143,470.031 177.81,470.05C160.88,471.13 143.55,470.65 126.57,470.74C124.697,470.753 122.673,469.97 120.5,468.39C117.293,462.257 118.19,457.493 123.19,454.1C124.357,453.3 125.827,452.877 127.6,452.83C142.487,452.443 157.367,452.363 172.24,452.59C174.9,452.63 177.827,453.243 181.02,454.43Z" style="fill:white;fill-rule:nonzero;"/>
        <g transform="matrix(0.999998,0.00174533,-0.00174533,0.999998,497.38,466.99)">
            <path d="M29.15,-0.47C29.15,-5.095 25.395,-8.85 20.77,-8.85L-20.77,-8.85C-25.395,-8.85 -29.15,-5.095 -29.15,-0.47L-29.15,0.47C-29.15,5.095 -25.395,8.85 -20.77,8.85L20.77,8.85C25.395,8.85 29.15,5.095 29.15,0.47L29.15,-0.47Z" style="fill:white;"/>
        </g>
        <path d="M580.69,556.56C574.72,553.63 575.81,541.27 582.34,539.01C596.66,534.06 602.45,555.52 590.31,557.3C589.38,557.43 580.76,557.96 580.69,556.56Z" style="fill:white;fill-rule:nonzero;"/>
        <path d="M41.31,555.31C38.65,558.39 31.33,559.17 28.09,556.97C23.02,553.52 22.13,544.46 27.07,540.74C30.51,538.14 36.13,538.6 39.78,540.73C45.55,544.1 45.38,550.6 41.31,555.31Z" style="fill:white;fill-rule:nonzero;"/>
        <path d="M487.29,573C488.01,576.367 487.287,579.12 485.12,581.26C482.7,583.65 477.39,583.73 474.44,583.72C425.127,583.493 375.817,583.517 326.51,583.79C309.45,583.89 292.57,583.48 273.25,583.63C210.317,584.15 163.65,584.157 133.25,583.65C130.81,583.61 128.907,582.143 127.54,579.25C126.22,573.017 128.547,568.927 134.52,566.98C135.927,566.527 137.37,566.303 138.85,566.31C250.37,566.75 362.01,566.51 473.6,566.49C479.55,566.49 484.54,566.82 487.29,573Z" style="fill:white;fill-rule:nonzero;"/>
        <path d="M407.5,592.96C420.07,594.46 416.46,609.02 405.75,610.54C404.05,610.52 402.28,610.99 400.73,610.99C373.737,611.003 346.743,610.99 319.75,610.95C316.523,610.95 313.357,610.537 310.25,609.71C307.503,608.443 305.683,606.373 304.79,603.5C303.39,596.45 307.24,592.98 313.84,593.02C345.06,593.22 376.28,593.2 407.5,592.96Z" style="fill:white;fill-rule:nonzero;"/>
        <path d="M442.57,599.21C443.68,603.01 439.51,607.53 435.42,607.48C431.55,607.42 429.54,602.94 430.33,599.56C431.65,593.97 440.95,593.59 442.57,599.21Z" style="fill:white;fill-rule:nonzero;"/>
    </g>
    <path d="M539.98,278.99C538.247,278.743 537.513,279.503 537.78,281.27C537.855,281.74 537.514,282.518 536.88,283.32C535.693,284.827 534.587,284.893 533.56,283.52C533.392,283.297 533.362,282.894 533.48,282.45L534,280.49C534.08,280.17 534.093,279.87 534.04,279.59C533.52,276.96 535.64,275.93 538.03,274.93C538.226,274.85 538.561,274.939 538.9,275.16C539.86,275.793 540.653,275.577 541.28,274.51C541.431,274.263 541.698,274.091 542.01,274.04C542.857,273.913 543.533,273.493 544.04,272.78C544.247,272.496 544.553,272.349 544.81,272.41C547,272.93 551.58,271.36 553.97,270.94C555.16,270.73 556.78,269.75 558.49,269.96C558.805,269.998 559.087,269.952 559.28,269.83C561.34,268.543 562.573,269.01 562.98,271.23C562.988,271.275 562.992,271.322 562.991,271.368C562.984,271.735 562.699,272.033 562.359,272.027C562.316,272.026 562.272,272.021 562.23,272.01C561.543,271.843 561.153,272.087 561.06,272.74C561.058,272.757 561.056,272.775 561.055,272.792C561.047,272.995 561.148,273.166 561.28,273.172C561.29,273.172 561.3,273.172 561.31,273.17C562.997,272.89 563.267,273.803 562.12,275.91C561.787,276.521 561.116,276.876 560.42,276.81C560,276.77 559.887,277.213 560.08,278.14C560.14,278.433 560.032,278.714 559.82,278.82L553.51,282C552.317,282.6 551.153,282.77 550.02,282.51C548.6,282.183 547.173,282.107 545.74,282.28C545.211,282.344 544.782,282.339 544.74,282.27L544.19,281.55C544.088,281.41 543.725,281.297 543.26,281.26C542.047,281.16 541.223,280.573 540.79,279.5C540.685,279.242 540.373,279.046 539.98,278.99Z" style="fill:white;fill-rule:nonzero;"/>
    <path d="M236.79,529.75C239.29,503.7 242.55,478.26 245.71,447.25L245.78,450.33C245.784,450.46 245.937,450.57 246.13,450.58C246.203,450.587 246.273,450.61 246.34,450.65C246.349,450.655 246.357,450.66 246.366,450.664C246.503,450.734 246.638,450.747 246.666,450.694C246.668,450.69 246.669,450.685 246.67,450.68L247.78,445.57C247.841,445.274 247.955,445.05 248.07,445C250.057,444.16 250.46,442.753 249.28,440.78C249.268,440.759 249.256,440.737 249.246,440.715C249.119,440.435 249.208,440.117 249.443,440.011C249.461,440.002 249.48,439.995 249.5,439.99C249.893,439.89 250.233,439.97 250.52,440.23C250.594,440.298 250.701,440.321 250.8,440.29C251.213,440.15 251.56,439.92 251.84,439.6C252.028,439.394 252.052,438.994 251.9,438.58C251.607,437.76 251.897,437.223 252.77,436.97C253.003,436.902 253.326,437.225 253.5,437.7C253.873,438.727 253.66,439.537 252.86,440.13C252.824,440.157 252.79,440.186 252.757,440.216C252.495,440.459 252.382,440.768 252.505,440.9C252.52,440.917 252.539,440.93 252.56,440.94C252.7,441 252.847,441.027 253,441.02C253.188,441.006 253.363,441.207 253.39,441.47C253.477,442.35 253.013,442.677 252,442.45C251.812,442.414 251.6,442.667 251.53,443.01C251.377,443.697 251.123,443.693 250.77,443C250.523,442.5 250.407,442.483 250.42,442.95C250.46,444.643 250.12,446.41 249.4,448.25C249.39,448.275 249.381,448.302 249.375,448.329C249.328,448.526 249.4,448.715 249.533,448.746C249.552,448.751 249.571,448.752 249.59,448.75C250.123,448.697 250.407,448.84 250.44,449.18C250.469,449.485 250.514,449.727 250.54,449.72C250.713,449.787 250.853,449.643 250.96,449.29C251.3,448.13 252.12,447.387 253.42,447.06C253.445,447.054 253.471,447.049 253.496,447.046C253.845,447.007 254.169,447.307 254.215,447.71C254.218,447.74 254.22,447.77 254.22,447.8L254.24,455.25C254.241,455.468 254.416,455.723 254.7,455.92C255.26,456.313 255.517,456.813 255.47,457.42C255.47,457.422 255.47,457.423 255.47,457.425C255.458,457.616 255.632,457.786 255.857,457.8C255.858,457.8 255.859,457.8 255.86,457.8C255.993,457.807 256.113,457.857 256.22,457.95C256.447,458.13 256.403,458.21 256.09,458.19C255.383,458.157 255.137,458.29 255.35,458.59C255.357,458.6 255.365,458.611 255.371,458.622C255.503,458.837 255.458,459.109 255.271,459.223C255.261,459.229 255.25,459.235 255.24,459.24C254.953,459.387 254.893,459.62 255.06,459.94C255.069,459.956 255.077,459.972 255.083,459.989C255.125,460.102 255.101,460.217 255.029,460.244C255.02,460.248 255.01,460.25 255,460.25C254.427,460.27 254.033,460.54 253.82,461.06C253.807,461.092 253.793,461.123 253.776,461.154C253.6,461.488 253.271,461.667 253.048,461.549C253.027,461.539 253.008,461.525 252.99,461.51C252.803,461.363 252.663,461.173 252.57,460.94C252.423,460.593 252.293,460.5 252.18,460.66C251.72,461.26 251.237,461.423 250.73,461.15C250.41,460.983 250.313,461.19 250.44,461.77C250.66,462.73 249.15,464.31 249.33,465.98C249.33,465.981 249.33,465.981 249.33,465.982C249.357,466.238 249.204,466.467 248.991,466.49C248.991,466.49 248.99,466.49 248.99,466.49C248.397,466.557 248.4,466.73 249,467.01C249.132,467.073 249.228,467.183 249.26,467.31C249.48,468.117 249.467,468.91 249.22,469.69C249.195,469.759 249.209,469.859 249.26,469.96C249.647,470.747 249.497,471.283 248.81,471.57C248.718,471.61 248.615,471.775 248.54,472C248.233,472.94 248.05,472.94 247.99,472C247.99,471.989 247.988,471.978 247.984,471.969C247.956,471.891 247.822,471.869 247.688,471.919C247.672,471.925 247.656,471.932 247.64,471.94L246.43,472.55C246.197,472.67 246.217,472.747 246.49,472.78C246.937,472.833 247.223,473 247.35,473.28C247.527,473.675 247.765,473.957 247.88,473.91C247.987,473.87 248.077,473.767 248.15,473.6C248.237,473.4 248.297,473.407 248.33,473.62C248.41,474.2 248.57,476.58 248.07,476.64C247.729,476.678 247.466,476.867 247.47,477.07C247.47,477.437 247.74,477.593 248.28,477.54C248.807,477.487 248.923,477.64 248.63,478C248.043,478.727 248.163,479.06 248.99,479C249.109,478.994 249.253,479.243 249.32,479.57C249.387,479.89 249.613,480.033 250,480C250.021,479.999 250.043,480 250.064,480.003C250.253,480.034 250.377,480.256 250.338,480.494C250.334,480.52 250.328,480.545 250.32,480.57C250.18,480.997 250.387,481.12 250.94,480.94C251.387,480.793 251.577,480.813 251.51,481L251.44,481.18C251.382,481.331 251.286,481.435 251.21,481.43C249.83,481.283 249.76,481.48 251,482.02C251.241,482.128 251.402,482.293 251.4,482.43L251.44,487.01C251.446,487.258 251.303,487.551 251.05,487.81L250.67,488.19C250.665,488.195 250.661,488.201 250.657,488.207C250.558,488.352 250.731,488.644 251.04,488.853C251.053,488.863 251.066,488.871 251.08,488.88C251.567,489.187 251.487,489.617 250.84,490.17C250.832,490.176 250.825,490.183 250.819,490.19C250.718,490.306 250.806,490.549 251.013,490.729C251.025,490.74 251.037,490.75 251.05,490.76C251.65,491.227 251.51,491.677 250.63,492.11C250.438,492.206 250.322,492.535 250.34,492.93L250.5,495.99C250.502,496.019 250.5,496.048 250.494,496.077C250.453,496.276 250.239,496.402 250.018,496.358C249.988,496.351 249.958,496.342 249.93,496.33L249.76,496.25C249.741,496.241 249.722,496.236 249.701,496.233C249.549,496.214 249.401,496.378 249.374,496.596C249.371,496.624 249.369,496.652 249.37,496.68L249.39,499.83C249.397,500.164 249.463,500.435 249.57,500.57C249.77,500.81 249.77,501.057 249.57,501.31C249.55,501.334 249.535,501.361 249.524,501.389C249.448,501.589 249.613,501.841 249.89,501.946C249.929,501.961 249.97,501.972 250.01,501.98C250.69,502.12 250.603,502.303 249.75,502.53C249.748,502.531 249.745,502.531 249.743,502.532C249.665,502.558 249.634,502.682 249.675,502.807C249.677,502.811 249.678,502.816 249.68,502.82L249.75,503C249.802,503.139 249.733,503.3 249.59,503.37C248.65,503.817 248.24,504.54 248.36,505.54C248.359,505.617 248.193,505.978 247.96,506.41C247.473,507.297 247.333,508.307 247.54,509.44C247.598,509.774 247.478,510.084 247.25,510.19C246.463,510.57 245.97,510.467 245.77,509.88C245.644,509.513 245.52,509.217 245.49,509.21C244.017,509.297 243.84,509.833 244.96,510.82C245.167,511.008 245.282,511.245 245.27,511.46C245.15,513.213 245.347,513.427 245.86,512.1C245.944,511.883 246.212,511.729 246.54,511.71C248.247,511.617 248.863,512.463 248.39,514.25C248.343,514.423 248.496,514.644 248.75,514.77L249.48,515.14C249.494,515.146 249.507,515.155 249.519,515.165C249.591,515.231 249.578,515.366 249.49,515.463C249.477,515.477 249.464,515.489 249.45,515.5C248.123,516.453 247.87,516.89 248.69,516.81C248.939,516.785 249.16,516.858 249.27,517C249.51,517.313 249.33,517.437 248.73,517.37C248.25,517.317 248.193,517.413 248.56,517.66C249.08,518.01 250.55,517.62 250.35,518.11C250.279,518.298 250.003,518.389 249.71,518.32C249.33,518.233 248.977,518.267 248.65,518.42C248.33,518.573 248.36,518.68 248.74,518.74C250.107,518.953 250.117,519.157 248.77,519.35C248.753,519.353 248.736,519.358 248.719,519.364C248.582,519.42 248.519,519.591 248.581,519.743C248.589,519.763 248.598,519.782 248.61,519.8C248.717,519.98 248.667,520.163 248.46,520.35C248.364,520.433 248.199,520.484 248,520.49C247.147,520.51 247.06,520.603 247.74,520.77C247.953,520.823 247.98,520.92 247.82,521.06C247.52,521.327 247.187,521.45 246.82,521.43C246.808,521.429 246.796,521.429 246.783,521.429C246.509,521.435 246.29,521.711 246.297,522.04C246.298,522.057 246.298,522.074 246.3,522.09C246.447,523.697 246.09,525.21 245.23,526.63C245.019,526.989 244.812,527.251 244.75,527.24L243.73,527.26C243.686,527.263 243.518,526.896 243.35,526.43C242.943,525.33 242.247,525.01 241.26,525.47C241.145,525.517 241.124,525.847 241.21,526.23C241.517,527.583 241.157,527.86 240.13,527.06C239.318,526.427 238.809,525.732 238.81,525.26C238.81,524.147 238.613,523.96 238.22,524.7C238.15,524.835 238.146,525.031 238.21,525.24C238.45,526.053 238.317,526.733 237.81,527.28C237.52,527.587 237.318,527.86 237.33,527.93C237.43,528.65 237.25,529.257 236.79,529.75Z" style="fill:white;fill-rule:nonzero;"/>
    <path d="M193.69,324.56L193.56,324.44C193.5,324.373 193.5,324.337 193.56,324.33C196.32,324.05 199.047,324.193 201.74,324.76C203.167,325.06 203.637,325.83 203.15,327.07L202.08,329.8C201.573,331.093 200.547,331.68 199,331.56C194.493,331.213 189.993,331.287 185.5,331.78C185.086,331.825 184.742,331.784 184.56,331.67C183.5,330.997 182.317,330.787 181.01,331.04C180.643,331.113 180.306,330.99 180.24,330.76C180.167,330.5 180.253,330.327 180.5,330.24C180.736,330.159 180.934,330.115 180.99,330.13C182.73,330.783 183.583,330.343 183.55,328.81C183.537,328.21 183.263,328.09 182.73,328.45C180.917,329.663 180.2,329.457 180.58,327.83C180.639,327.567 180.817,327.373 181.02,327.35C185.253,326.857 189.407,325.96 193.48,324.66C193.484,324.659 193.487,324.658 193.491,324.657C193.606,324.621 193.697,324.578 193.692,324.563C193.692,324.562 193.691,324.561 193.69,324.56Z" style="fill:white;fill-rule:nonzero;"/>
</svg>
